<svg width="201" height="45" viewBox="0 0 201 45" fill="none" xmlns="http://www.w3.org/2000/svg">
<g clip-path="url(#clip0_439_4612)">
<path d="M22.5788 45.0001C13.5011 44.5847 6.72738 40.6154 2.44196 32.6308C0.552691 29.077 -0.230666 25.2462 0.0458131 21.277C0.69093 12.6462 4.93027 6.27698 12.5795 2.30775C16.0355 0.507749 19.768 -0.184558 23.6387 0.0462112C29.1682 0.369288 33.9145 2.44621 37.9695 6.27698C38.246 6.5539 38.246 6.69237 37.9695 6.96929C35.5272 9.41544 33.085 11.8616 30.6428 14.3077C30.4124 14.5385 30.2281 14.5847 29.9977 14.3077C27.8319 12.3231 25.2975 11.3077 22.3484 11.3077C16.7267 11.3077 11.9805 15.5539 11.2893 21.1847C10.552 27.3231 14.9296 32.9077 21.0582 33.6462C24.4681 34.0616 27.4633 33.0462 29.9977 30.7385C30.2741 30.5077 30.4124 30.5077 30.6428 30.7385C33.085 33.1847 35.5272 35.6308 37.9695 38.077C38.1999 38.3077 38.1999 38.4462 37.9695 38.677C34.6056 41.8616 30.6428 43.8924 26.0809 44.677C24.9289 44.8154 23.7308 44.9077 22.5788 45.0001Z" fill="white"/>
<path d="M40.8727 35.2616C40.7345 35.1231 40.6423 35.0308 40.5502 34.9385C36.4952 30.9231 32.4401 26.8616 28.4312 22.8C28.1547 22.5231 28.2008 22.3846 28.4312 22.1077C32.4401 18.0923 36.4491 14.0308 40.458 10.0154C40.8727 9.60002 40.8727 9.60002 41.1953 10.1077C42.9924 12.8769 44.1905 15.9231 44.6513 19.2C45.2503 23.4 44.7434 27.5077 43.0385 31.3846C42.5316 32.5846 41.7943 33.6923 41.1953 34.8462C41.1031 34.9846 40.9649 35.0769 40.8727 35.2616Z" fill="white"/>
<path d="M72.0227 18.3692C71.8384 18.6 71.7001 18.7384 71.5158 18.8769C71.3776 19.0154 71.1472 19.0615 70.8246 19.0615C70.5481 19.0615 70.2716 19.0154 70.0412 18.8769C69.8108 18.7384 69.5804 18.6 69.2579 18.4154C68.9814 18.2307 68.6589 18.0923 68.2441 17.9538C67.8755 17.8154 67.3686 17.7692 66.8157 17.7692C66.1245 17.7692 65.5254 17.9077 65.0185 18.1384C64.5117 18.4154 64.0969 18.7846 63.7744 19.2461C63.4518 19.7077 63.1754 20.3077 63.0371 21C62.8989 21.6923 62.8067 22.4769 62.8067 23.3538C62.8067 25.2 63.1754 26.5846 63.8666 27.6C64.5578 28.5692 65.5254 29.0769 66.7696 29.0769C67.4147 29.0769 67.9677 28.9846 68.3363 28.8461C68.7049 28.6615 69.0736 28.4769 69.304 28.2923C69.5804 28.1077 69.8108 27.923 70.0412 27.7384C70.2716 27.5538 70.5481 27.4615 70.9168 27.4615C71.3776 27.4615 71.7001 27.6461 71.9305 27.9692L73.5894 30C72.9903 30.6923 72.3913 31.2461 71.7462 31.6615C71.1011 32.0769 70.4099 32.4 69.7648 32.6769C69.0736 32.9077 68.3824 33.0923 67.6912 33.1846C67 33.2769 66.3549 33.323 65.6637 33.323C64.5117 33.323 63.3597 33.0923 62.2998 32.6769C61.24 32.2154 60.3184 31.5692 59.489 30.7384C58.7056 29.9077 58.0605 28.8461 57.5536 27.6461C57.0928 26.4 56.8624 25.0154 56.8624 23.4461C56.8624 22.0615 57.0467 20.7692 57.4615 19.5692C57.8762 18.3692 58.4752 17.3077 59.3047 16.4307C60.088 15.5538 61.1018 14.8615 62.2998 14.3538C63.4979 13.8461 64.8803 13.6154 66.4009 13.6154C67.9216 13.6154 69.2118 13.8461 70.3638 14.3538C71.5158 14.8154 72.5296 15.5538 73.4051 16.4769L72.0227 18.3692Z" fill="white"/>
<path d="M76.1238 33V5.35382H81.8377V15.5077C82.5289 14.9077 83.2661 14.4461 84.0956 14.0769C84.8789 13.7077 85.8466 13.5231 86.9986 13.5231C88.0584 13.5231 88.98 13.7077 89.7634 14.0769C90.5468 14.4461 91.2379 14.9538 91.7909 15.6C92.3439 16.2461 92.7586 17.0307 93.0351 17.9077C93.3115 18.7846 93.4498 19.7538 93.4498 20.8154V33H87.7359V20.8154C87.7359 19.8923 87.5055 19.1538 87.0908 18.6461C86.676 18.1384 86.0309 17.8615 85.2015 17.8615C84.5564 17.8615 84.0034 18 83.4505 18.2769C82.8975 18.5538 82.3906 18.9231 81.8838 19.3846V33.0461H76.1238V33Z" fill="white"/>
<path d="M105.707 13.5692C106.951 13.5692 108.149 13.7538 109.163 14.1692C110.223 14.5846 111.098 15.1384 111.882 15.8769C112.619 16.6154 113.218 17.5384 113.633 18.6461C114.047 19.7538 114.278 20.9538 114.278 22.3384C114.278 22.7538 114.278 23.1231 114.232 23.4C114.186 23.6769 114.14 23.9077 114.047 24.0461C113.955 24.1846 113.817 24.3231 113.633 24.3692C113.448 24.4154 113.264 24.4615 112.988 24.4615H101.975C102.159 26.0769 102.666 27.2308 103.449 27.9231C104.232 28.6615 105.246 28.9846 106.49 28.9846C107.135 28.9846 107.734 28.8923 108.195 28.7538C108.656 28.6154 109.117 28.4308 109.486 28.2C109.854 28.0154 110.223 27.8308 110.499 27.6461C110.822 27.5077 111.144 27.4154 111.467 27.4154C111.928 27.4154 112.25 27.6 112.481 27.9231L114.14 29.9538C113.541 30.6461 112.895 31.2 112.25 31.6154C111.559 32.0308 110.868 32.3538 110.131 32.6308C109.393 32.8615 108.702 33.0461 107.965 33.1384C107.228 33.2308 106.582 33.2769 105.891 33.2769C104.555 33.2769 103.311 33.0461 102.113 32.6308C100.961 32.2154 99.9009 31.5231 99.0254 30.6923C98.1499 29.8154 97.4587 28.7538 96.9518 27.4615C96.4449 26.1692 96.1685 24.6923 96.1685 22.9846C96.1685 21.6923 96.3989 20.4923 96.8136 19.3384C97.2283 18.1846 97.8734 17.1692 98.7028 16.3384C99.5323 15.4615 100.5 14.8154 101.652 14.3077C102.942 13.8 104.232 13.5692 105.707 13.5692ZM105.799 17.4923C104.693 17.4923 103.864 17.8154 103.219 18.4154C102.62 19.0154 102.205 19.9384 102.021 21.0923H109.163C109.163 20.6308 109.117 20.2154 108.979 19.7538C108.84 19.3384 108.656 18.9231 108.426 18.6C108.149 18.2769 107.827 18 107.366 17.7692C106.951 17.5846 106.398 17.4923 105.799 17.4923Z" fill="white"/>
<path d="M117.55 33V13.8461H121.098C121.466 13.8461 121.743 13.9385 121.973 14.0769C122.204 14.2154 122.388 14.4923 122.48 14.8154L122.803 15.8308C123.125 15.5077 123.448 15.1846 123.816 14.9077C124.139 14.6308 124.554 14.4 124.922 14.1692C125.337 13.9846 125.752 13.8 126.213 13.7077C126.673 13.5692 127.18 13.5231 127.733 13.5231C128.885 13.5231 129.853 13.8 130.59 14.4C131.327 15 131.926 15.7846 132.295 16.8C132.618 16.2 132.986 15.6923 133.447 15.2769C133.908 14.8615 134.415 14.5385 134.922 14.2615C135.475 13.9846 136.028 13.8 136.627 13.7077C137.226 13.5692 137.825 13.5231 138.424 13.5231C139.53 13.5231 140.497 13.7077 141.327 14.0308C142.156 14.3538 142.893 14.8154 143.446 15.4615C143.999 16.0615 144.46 16.8461 144.737 17.7692C145.013 18.6923 145.197 19.7077 145.197 20.8615V33.0461H139.484V20.8154C139.484 18.8308 138.654 17.8615 136.949 17.8615C136.166 17.8615 135.521 18.1385 135.014 18.6461C134.507 19.1538 134.23 19.8923 134.23 20.8615V33.0461H128.563V20.8154C128.563 19.7077 128.332 18.9692 127.918 18.5077C127.503 18.0461 126.858 17.8615 126.028 17.8615C125.521 17.8615 125.014 18 124.554 18.2308C124.093 18.4615 123.678 18.7846 123.263 19.1538V33H117.55Z" fill="white"/>
<path d="M148.93 19.4769H158.883V24.0923H148.93V19.4769Z" fill="white"/>
<path d="M162.938 39.0462V13.8462H166.486C166.855 13.8462 167.131 13.9385 167.362 14.0769C167.592 14.2154 167.776 14.4923 167.869 14.8154L168.283 16.2C168.652 15.7846 169.067 15.4154 169.481 15.0923C169.896 14.7692 170.357 14.4923 170.864 14.2154C171.371 13.9846 171.878 13.8 172.431 13.6615C172.984 13.5231 173.583 13.4769 174.274 13.4769C175.287 13.4769 176.209 13.7077 177.039 14.1231C177.868 14.5846 178.605 15.1846 179.25 16.0615C179.849 16.8923 180.356 17.9077 180.679 19.1539C181.047 20.3539 181.186 21.7385 181.186 23.2615C181.186 24.6923 181.001 26.0308 180.587 27.2308C180.172 28.4308 179.619 29.4923 178.928 30.4154C178.191 31.2923 177.361 32.0308 176.347 32.5385C175.334 33.0462 174.228 33.2769 173.03 33.2769C172.016 33.2769 171.186 33.1385 170.541 32.8615C169.85 32.5846 169.251 32.2154 168.698 31.7077V39.0462H162.938ZM172.246 17.8615C171.831 17.8615 171.463 17.9077 171.094 18C170.772 18.0923 170.449 18.1846 170.173 18.3231C169.896 18.4615 169.62 18.6462 169.389 18.8769C169.159 19.1077 168.882 19.3846 168.652 19.6615V27.7846C169.067 28.2462 169.528 28.6154 170.034 28.8C170.541 28.9846 171.048 29.0769 171.601 29.0769C172.108 29.0769 172.615 28.9846 173.076 28.7539C173.536 28.5231 173.905 28.2 174.228 27.7385C174.55 27.2769 174.827 26.6769 175.011 25.9385C175.195 25.2 175.287 24.3231 175.287 23.2615C175.287 22.2462 175.195 21.4154 175.057 20.7231C174.919 20.0308 174.688 19.4769 174.458 19.0615C174.182 18.6462 173.859 18.3231 173.49 18.1385C173.122 17.9539 172.707 17.8615 172.246 17.8615Z" fill="white"/>
<path d="M192.429 13.5692C193.673 13.5692 194.871 13.7538 195.885 14.1692C196.945 14.5846 197.82 15.1384 198.604 15.8769C199.341 16.6154 199.94 17.5384 200.355 18.6461C200.77 19.7538 201 20.9538 201 22.3384C201 22.7538 201 23.1231 200.954 23.4C200.908 23.6769 200.862 23.9077 200.77 24.0461C200.677 24.1846 200.539 24.3231 200.355 24.3692C200.17 24.4154 199.986 24.4615 199.71 24.4615H188.697C188.881 26.0769 189.388 27.2308 190.171 27.9231C190.955 28.6615 191.968 28.9846 193.212 28.9846C193.858 28.9846 194.457 28.8923 194.917 28.7538C195.378 28.6154 195.839 28.4308 196.208 28.2C196.576 28.0154 196.945 27.8308 197.221 27.6461C197.544 27.5077 197.866 27.4154 198.189 27.4154C198.65 27.4154 198.972 27.6 199.203 27.9231L200.908 30C200.309 30.6923 199.664 31.2461 199.018 31.6615C198.327 32.0769 197.636 32.4 196.899 32.6769C196.162 32.9077 195.47 33.0923 194.733 33.1846C193.996 33.2769 193.351 33.3231 192.659 33.3231C191.323 33.3231 190.079 33.0923 188.881 32.6769C187.729 32.2615 186.669 31.5692 185.794 30.7384C184.918 29.8615 184.227 28.8 183.72 27.5077C183.213 26.2154 182.937 24.7384 182.937 23.0308C182.937 21.7384 183.167 20.5384 183.582 19.3846C183.996 18.2308 184.642 17.2154 185.471 16.3846C186.3 15.5077 187.268 14.8615 188.42 14.3538C189.664 13.8 190.955 13.5692 192.429 13.5692ZM192.521 17.4923C191.415 17.4923 190.586 17.8154 189.941 18.4154C189.342 19.0154 188.927 19.9384 188.743 21.0923H195.885C195.885 20.6308 195.839 20.2154 195.701 19.7538C195.563 19.3384 195.378 18.9231 195.148 18.6C194.917 18.2769 194.549 18 194.088 17.7692C193.673 17.5846 193.166 17.4923 192.521 17.4923Z" fill="white"/>
</g>
<defs>
<clipPath id="clip0_439_4612">
<rect width="201" height="45" fill="white"/>
</clipPath>
</defs>
</svg>
