<svg width="65" height="65" viewBox="0 0 65 65" fill="none" xmlns="http://www.w3.org/2000/svg">
<g clip-path="url(#clip0_17_3)">
<path d="M32.6312 65.0001C19.4925 64.3827 9.69006 58.6198 3.52368 47.0755C0.80598 41.9676 -0.356073 36.4293 0.0937539 30.6665C1.04964 18.2053 7.17853 9.05593 18.2743 3.31184C23.2598 0.729797 28.6765 -0.261855 34.2994 0.0562218C42.3025 0.523982 49.1999 3.55507 55.0289 9.05593C55.4225 9.43014 55.4412 9.63596 55.0476 10.0289C51.5052 13.5464 47.9628 17.064 44.4579 20.6003C44.1018 20.9558 43.8957 20.9745 43.5021 20.619C40.3908 17.7376 36.6797 16.2969 32.4438 16.2969C24.2907 16.2969 17.4121 22.4339 16.4375 30.5168C15.3504 39.3481 21.6855 47.4497 30.5508 48.4975C35.4801 49.0775 39.8285 47.6555 43.5021 44.3064C43.8769 43.9509 44.0831 43.9509 44.4579 44.3251C47.9816 47.8801 51.5427 51.4163 55.0851 54.9339C55.4412 55.2894 55.4225 55.4952 55.0664 55.832C50.1932 60.4535 44.4767 63.3723 37.8417 64.4575C36.0987 64.7194 34.2994 64.813 32.6312 65.0001Z" fill="#008644"/>
<path d="M59.1897 50.911C58.9836 50.7239 58.8336 50.593 58.7024 50.462C52.8547 44.6243 47.0069 38.7867 41.1404 32.949C40.7468 32.5561 40.7656 32.3316 41.1592 31.9574C46.9694 26.1384 52.7797 20.3008 58.59 14.4819C59.171 13.9018 59.171 13.9018 59.6396 14.5941C62.2823 18.5981 63.9504 22.9577 64.6439 27.6914C65.5248 33.791 64.7751 39.6848 62.301 45.3166C61.5326 47.038 60.5205 48.6471 59.6208 50.2936C59.5084 50.4807 59.3772 50.6491 59.1897 50.911Z" fill="url(#paint0_linear_17_3)"/>
</g>
<defs>
<linearGradient id="paint0_linear_17_3" x1="52.9373" y1="50.9038" x2="52.9373" y2="14.0528" gradientUnits="userSpaceOnUse">
<stop stop-color="#EF4223"/>
<stop offset="1" stop-color="#FFCF01"/>
</linearGradient>
<clipPath id="clip0_17_3">
<rect width="65" height="65" fill="white"/>
</clipPath>
</defs>
</svg>
